G04 ================== begin FILE IDENTIFICATION RECORD ==================*
G04 Layout Name:  C:/USERS/USER/DESKTOP/WORK/PULSE/allegro/PULSE.brd*
G04 Film Name:    Deign*
G04 File Format:  Gerber RS274X*
G04 File Origin:  Cadence Allegro 17.2-P019*
G04 Origin Date:  Tue Jul 30 17:33:54 2019*
G04 *
G04 Layer:  VIA CLASS/BOTTOM*
G04 Layer:  VIA CLASS/TOP*
G04 Layer:  ROUTE KEEPOUT/ALL*
G04 Layer:  ROUTE KEEPIN/ALL*
G04 Layer:  REF DES/SILKSCREEN_TOP*
G04 Layer:  REF DES/SILKSCREEN_BOTTOM*
G04 Layer:  PIN/BOTTOM*
G04 Layer:  PIN/TOP*
G04 Layer:  PACKAGE KEEPIN/ALL*
G04 Layer:  PACKAGE GEOMETRY/PIN_NUMBER*
G04 Layer:  PACKAGE GEOMETRY/SILKSCREEN_TOP*
G04 Layer:  PACKAGE GEOMETRY/SILKSCREEN_BOTTOM*
G04 Layer:  PACKAGE GEOMETRY/SOLDERMASK_TOP*
G04 Layer:  PACKAGE GEOMETRY/SOLDERMASK_BOTTOM*
G04 Layer:  PACKAGE GEOMETRY/PASTEMASK_TOP*
G04 Layer:  PACKAGE GEOMETRY/PASTEMASK_BOTTOM*
G04 Layer:  ETCH/BOTTOM*
G04 Layer:  ETCH/TOP*
G04 Layer:  BOARD GEOMETRY/OUTLINE*
G04 Layer:  BOARD GEOMETRY/SILKSCREEN_TOP*
G04 Layer:  BOARD GEOMETRY/SILKSCREEN_BOTTOM*
G04 Layer:  BOARD GEOMETRY/SOLDERMASK_TOP*
G04 Layer:  BOARD GEOMETRY/SOLDERMASK_BOTTOM*
G04 Layer:  BOARD GEOMETRY/DESIGN_OUTLINE*
G04 *
G04 Offset:    (0.000 0.000)*
G04 Mirror:    No*
G04 Mode:      Positive*
G04 Rotation:  0*
G04 FullContactRelief:  No*
G04 UndefLineWidth:     0.000*
G04 ================== end FILE IDENTIFICATION RECORD ====================*
%FSLAX25Y25*MOMM*%
%IR0*IPPOS*OFA0.00000B0.00000*MIA0B0*SFA1.00000B1.00000*%
%ADD11C,1.524*%
%ADD12C,1.651*%
%ADD13R,1.524X1.524*%
%ADD17C,1.397*%
%ADD16R,1.397X1.397*%
%ADD15O,1.524X1.016*%
%ADD14R,1.524X1.016*%
%ADD10C,.635*%
%ADD18C,1.*%
%ADD19C,.203*%
%ADD20C,.5*%
%ADD23C,2.402*%
%ADD22C,2.528*%
%ADD21C,2.656*%
G75*
%LPD*%
G75*
G36*
G01X754200Y500000D02*
Y754200D01*
X500000D01*
Y2111600D01*
G03X577100Y2137800I44J126415D01*
G01X1149500D01*
X1271700Y2015600D01*
X1271900Y2014000D01*
G03X1296800Y1954900I125129J17924D01*
G01Y1455500D01*
X1455500Y1296800D01*
X5085000D01*
X5212000Y1423800D01*
X7053500D01*
X7212200Y1582500D01*
Y1954900D01*
G03X7237100Y2014000I-100229J77024D01*
G01X7237300Y2015600D01*
X7280500Y2058800D01*
X8514000D01*
X8672700Y2217500D01*
Y6010500D01*
X8296500Y6386700D01*
X5646500D01*
X5487800Y6228000D01*
Y5265500D01*
X5646500Y5106800D01*
X6462500D01*
X6503800Y5065500D01*
Y5030100D01*
X6502800Y5028700D01*
G03X6486500Y4999500I101233J-75660D01*
G02X6467500I-9500J3796D01*
G03X6232500I-117500J-46500D01*
G02X6213500I-9500J3796D01*
G03X5987400Y5017600I-117499J-46528D01*
G02X5968400Y5022800I-8790J5194D01*
G01Y5029200D01*
G03X5918200Y5079400I-50200J0D01*
G01X5765800D01*
G03X5715600Y5029200I0J-50200D01*
G01Y4876800D01*
G03X5765800Y4826600I50200J0D01*
G01X5918200D01*
G03X5968400Y4876800I0J50200D01*
G01Y4883200D01*
G02X5987400Y4888400I10210J6D01*
G03X6213500Y4906500I108601J64628D01*
G02X6232500I9500J-3796D01*
G03X6467500I117500J46500D01*
G02X6486500I9500J-3796D01*
G03X6707500Y4880400I117533J46500D01*
G02X6726000Y4874500I8311J-5894D01*
G01Y3057700D01*
X6587600Y2919300D01*
X6586000Y2919100D01*
G03X6486500Y2840500I18022J-125093D01*
G02X6467500I-9500J3796D01*
G03Y2747500I-117500J-46500D01*
G02X6486500I9500J-3796D01*
G03X6503800Y2716900I117612J46303D01*
G01Y2645000D01*
X6491700Y2632900D01*
X4684300D01*
X4672200Y2645000D01*
Y2716900D01*
G03X4689500Y2747500I-100312J76903D01*
G02X4708500I9500J-3796D01*
G03X4943500I117500J46500D01*
G02X4962500I9500J-3796D01*
G03Y2840500I117500J46500D01*
G02X4943500I-9500J3796D01*
G03X4708500I-117500J-46500D01*
G02X4689500I-9500J3796D01*
G03X4454500I-117500J-46500D01*
G02X4435500I-9500J3796D01*
G03X4215600Y2719900I-117537J-46467D01*
G02X4207400Y2703700I-8244J-6003D01*
G01X3992000D01*
G02X3983500Y2719600I-46J10197D01*
G03X3763500I-110000J74400D01*
G02X3755000Y2703700I-8454J-5703D01*
G01X3443500D01*
X3402200Y2745000D01*
Y2899000D01*
X3216500Y3084700D01*
X1595000D01*
G02X1587800Y3102100I-12J10185D01*
G01X1662700Y3177100D01*
Y4412600D01*
X1500100Y4575200D01*
X601600D01*
G03X500000Y4626400I-101600J-75206D01*
G01Y6245800D01*
X754200D01*
Y6500000D01*
X9245800D01*
Y6245800D01*
X9500000D01*
Y3380400D01*
G03X9453500Y3136500I0J-126383D01*
G02Y3117500I-3796J-9500D01*
G03X9500000Y2873600I46500J-117517D01*
G01Y754200D01*
X9245800D01*
Y500000D01*
X754200D01*
G37*
G36*
G01X601600Y4424800D02*
X1437900D01*
X1512300Y4350400D01*
Y3239300D01*
X1131300Y2858300D01*
Y2445400D01*
X1221000Y2355600D01*
G02X1213800Y2338200I-7188J-7215D01*
G01X577100D01*
G03X546500Y2355500I-76903J-100312D01*
G02Y2374500I3796J9500D01*
G03Y2609500I-46500J117500D01*
G02Y2628500I3796J9500D01*
G03X577100Y2645800I-46303J117612D01*
G01X882500D01*
X1116200Y2879500D01*
Y4103800D01*
G03X915800I-100200J87200D01*
G01Y2962500D01*
X799500Y2846200D01*
X577100D01*
G03X546500Y2863500I-76903J-100312D01*
G02Y2882500I3796J9500D01*
G03X500000Y3126400I-46500J117517D01*
G01Y3865600D01*
G03X546500Y4109500I0J126383D01*
G02Y4128500I3796J9500D01*
G03Y4363500I-46500J117500D01*
G02Y4382500I3796J9500D01*
G03X601600Y4424800I-46451J117544D01*
G37*
G36*
G01X1538500Y1497200D02*
X1497200Y1538500D01*
Y1954900D01*
G03X1443500Y2149500I-100191J77062D01*
G02Y2168500I3796J9500D01*
G03Y2403500I-46500J117500D01*
G02Y2422500I3796J9500D01*
G03X1461600Y2648600I-46528J117499D01*
G02X1466800Y2667600I5194J8790D01*
G01X1473200D01*
G03X1523400Y2717800I0J50200D01*
G01Y2778700D01*
X1629000Y2884300D01*
X2048400D01*
G02X2056600Y2868100I-44J-10197D01*
G03X2112500Y2676500I102403J-74078D01*
G02Y2657500I-3796J-9500D01*
G03Y2422500I46500J-117500D01*
G02Y2403500I-3796J-9500D01*
G03Y2168500I46500J-117500D01*
G02Y2149500I-3796J-9500D01*
G03X2205500I46500J-117500D01*
G02Y2168500I3796J9500D01*
G03Y2403500I-46500J117500D01*
G02Y2422500I3796J9500D01*
G03Y2657500I-46500J117500D01*
G02Y2676500I3796J9500D01*
G03X2261400Y2868100I-46503J117522D01*
G02X2269600Y2884300I8244J6003D01*
G01X3133500D01*
X3201800Y2816000D01*
Y2662000D01*
X3360500Y2503300D01*
X4530500D01*
X4601300Y2432500D01*
X6574700D01*
X6704200Y2562000D01*
Y2716900D01*
G03X6721500Y2747500I-100312J76903D01*
G02X6740500I9500J-3796D01*
G03X6975500I117500J46500D01*
G02X6994500I9500J-3796D01*
G03Y2840500I117500J46500D01*
G02X6975500I-9500J3796D01*
G03X6889800Y2916300I-117508J-46509D01*
G02X6885100Y2933400I2529J9891D01*
G01X6926400Y2974700D01*
Y5974000D01*
X6767700Y6132700D01*
X6154500D01*
X5995800Y5974000D01*
Y5792100D01*
G03X5978500Y5761500I100312J-76903D01*
G02X5959500I-9500J3796D01*
G03Y5668500I-117500J-46500D01*
G02X5978500I9500J-3796D01*
G03X6213500I117500J46500D01*
G02X6232500I9500J-3796D01*
G03X6467500I117500J46500D01*
G02X6486500I9500J-3796D01*
G03X6707500Y5642400I117533J46500D01*
G02X6726000Y5636500I8311J-5894D01*
G01Y5031500D01*
G02X6707500Y5025600I-10189J-6D01*
G03X6704200Y5030100I-103569J-72491D01*
G01Y5148500D01*
X6545500Y5307200D01*
X5729500D01*
X5688200Y5348500D01*
Y6145000D01*
X5729500Y6186300D01*
X8213500D01*
X8472300Y5927500D01*
Y2300500D01*
X8431000Y2259200D01*
X7197500D01*
X7095600Y2157300D01*
X7094000Y2157100D01*
G03X6994500Y2078500I18022J-125093D01*
G02X6975500I-9500J3796D01*
G03X6740500I-117500J-46500D01*
G02X6721500I-9500J3796D01*
G03X6495400Y2096600I-117499J-46528D01*
G02X6476400Y2101800I-8790J5194D01*
G01Y2108200D01*
G03X6426200Y2158400I-50200J0D01*
G01X6273800D01*
G03X6223600Y2108200I0J-50200D01*
G01Y1955800D01*
G03X6273800Y1905600I50200J0D01*
G01X6426200D01*
G03X6476400Y1955800I0J50200D01*
G01Y1962200D01*
G02X6495400Y1967400I10210J6D01*
G03X6721500Y1985500I108601J64628D01*
G02X6740500I9500J-3796D01*
G03X6975500I117500J46500D01*
G02X6994500I9500J-3796D01*
G03X7011800Y1954900I117612J46303D01*
G01Y1665500D01*
X6970500Y1624200D01*
X5285000D01*
X5243700Y1665500D01*
Y2010000D01*
X5205300Y2048400D01*
X5205100Y2050000D01*
G03X4962500Y2078500I-125092J-18030D01*
G02X4943500I-9500J3796D01*
G03X4708500I-117500J-46500D01*
G02X4689500I-9500J3796D01*
G03X4463400Y2096600I-117499J-46528D01*
G02X4444400Y2101800I-8790J5194D01*
G01Y2108200D01*
G03X4394200Y2158400I-50200J0D01*
G01X4241800D01*
G03X4191600Y2108200I0J-50200D01*
G01Y1955800D01*
G03X4241800Y1905600I50200J0D01*
G01X4394200D01*
G03X4444400Y1955800I0J50200D01*
G01Y1962200D01*
G02X4463400Y1967400I10210J6D01*
G03X4689500Y1985500I108601J64628D01*
G02X4708500I9500J-3796D01*
G03X4943500I117500J46500D01*
G02X4962500I9500J-3796D01*
G03X5043300Y1911000I117564J46439D01*
G01Y1538500D01*
X5002000Y1497200D01*
X1538500D01*
G37*
%LPC*%
G75*
G36*
G01X8770000Y3867200D02*
Y4006800D01*
G02X8820200Y4057000I50150J50D01*
G01X8959800D01*
G02X9010000Y4006800I50J-50150D01*
G01Y3867200D01*
G02X8959800Y3817000I-50150J-50D01*
G01X8820200D01*
G02X8770000Y3867200I-50J50150D01*
G37*
G36*
G01X4634900Y4902200D02*
G02X4584700Y4852000I-50200J0D01*
G01X4432300D01*
G02X4382100Y4902200I0J50200D01*
G01Y5003800D01*
G02X4392800Y5034800I50257J0D01*
G02X4404600Y5143500I90309J45187D01*
G02X4483100Y5308000I78500J63520D01*
G01X4533900D01*
G02X4612400Y5143500I0J-100980D01*
G02X4624200Y5034800I-78509J-63513D01*
G02X4634900Y5003800I-39557J-31000D01*
G01Y4902200D01*
G37*
G36*
G01X3673500Y5033500D02*
G02Y5126500I-117500J46500D01*
G03X3692500I9500J3796D01*
G02Y5033500I117500J-46500D01*
G03X3673500I-9500J-3796D01*
G37*
G36*
G01X2967500Y5070500D02*
G02X2874500I-46500J-117500D01*
G03Y5089500I-3796J9500D01*
G02X2967500I46500J117500D01*
G03Y5070500I3796J-9500D01*
G37*
G36*
G01X3124200Y3429600D02*
X2971800D01*
G02X2921600Y3479800I0J50200D01*
G01Y3632200D01*
G02X2971800Y3682400I50200J0D01*
G01X3124200D01*
G02X3174400Y3632200I0J-50200D01*
G01Y3625800D01*
G03X3193400Y3620600I10210J-6D01*
G02X3419500Y3602500I108601J-64628D01*
G03X3438500I9500J3796D01*
G02X3673500I117500J-46500D01*
G03X3692500I9500J3796D01*
G02Y3509500I117500J-46500D01*
G03X3673500I-9500J-3796D01*
G02X3438500I-117500J46500D01*
G03X3419500I-9500J-3796D01*
G02X3193400Y3491400I-117499J46528D01*
G03X3174400Y3486200I-8790J-5194D01*
G01Y3479800D01*
G02X3124200Y3429600I-50200J0D01*
G37*
G36*
G01X5586300Y3285600D02*
X5586100Y3284000D01*
G02X5443000Y3427100I-125100J18000D01*
G01X5444600Y3427300D01*
X5589700Y3572400D01*
X5589900Y3574000D01*
G02X5678300Y3677000I125129J-17957D01*
G01Y3859000D01*
X5637000Y3900300D01*
X3106500D01*
X2947800Y4059000D01*
Y4240900D01*
G02X3165500Y4364500I100170J77088D01*
G03X3184500I9500J3796D01*
G02X3419500I117500J-46500D01*
G03X3438500I9500J3796D01*
G02X3673500I117500J-46500D01*
G03X3692500I9500J3796D01*
G02Y4271500I117500J-46500D01*
G03X3673500I-9500J-3796D01*
G02X3438500I-117500J46500D01*
G03X3419500I-9500J-3796D01*
G02X3184500I-117500J46500D01*
G03X3165500I-9500J-3796D01*
G02X3148200Y4240900I-117612J46303D01*
G01Y4142000D01*
X3189500Y4100700D01*
X5720000D01*
X5878700Y3942000D01*
Y3578000D01*
X5840300Y3539600D01*
X5840100Y3538000D01*
G02X5733000Y3430900I-125100J18000D01*
G01X5731400Y3430700D01*
X5586300Y3285600D01*
G37*
G36*
G01X3348500Y2149500D02*
G02X3255500I-46500J-117500D01*
G03Y2168500I-3796J9500D01*
G02X3348500I46500J117500D01*
G03Y2149500I3796J-9500D01*
G37*
G54D23*
X8890000Y4851400D03*
G54D22*
X5207000Y3556000D03*
X8001000Y4064000D03*
X8255000Y3810000D03*
Y4318000D03*
G54D21*
X1016000Y5207000D03*
X1905000Y4191000D03*
Y5207000D03*
X4572000Y4318000D03*
X5588000D03*
X5842000Y1016000D03*
X6477000Y3810000D03*
X2476500Y1651000D03*
X3492500D03*
X3873500Y1778000D03*
X5842000Y2032000D03*
X7493000Y3810000D03*
Y4826000D03*
Y5842000D03*
X8255000Y4826000D03*
Y5842000D03*
%LPD*%
G75*
G36*
G01X246000Y246000D02*
Y754000D01*
X754000D01*
Y246000D01*
X246000D01*
G37*
G36*
G01Y6246000D02*
Y6754000D01*
X754000D01*
Y6246000D01*
X246000D01*
G37*
G36*
G01X9246000Y246000D02*
Y754000D01*
X9754000D01*
Y246000D01*
X9246000D01*
G37*
G36*
G01Y6246000D02*
Y6754000D01*
X9754000D01*
Y6246000D01*
X9246000D01*
G37*
G54D10*
X500000Y500000D03*
D03*
Y6500000D03*
D03*
X9500000Y500000D03*
D03*
Y6500000D03*
D03*
G54D20*
G01X2159000Y2794000D02*
Y3111500D01*
X2095500Y3175000D01*
X825500D01*
X762000Y3238500D01*
Y4127500D01*
X643500Y4246000D01*
X500000D01*
G01Y3860500D02*
Y3992000D01*
G01D02*
X631500D01*
G01X1397000Y2286000D02*
X1206500Y2476500D01*
Y2827200D01*
X1587500Y3208200D01*
Y4381500D01*
X1469000Y4500000D01*
X500000D01*
G01X1016000Y5207000D02*
X1905000D01*
G01X1767100Y4191000D02*
X1905000D01*
G01X5842000Y1016000D02*
X2209000D01*
X2159000Y1066000D01*
Y2032000D01*
G01X2476500Y1513100D02*
Y1651000D01*
G01D02*
Y1788900D01*
G01X2338600Y1651000D02*
X2476500D01*
G01D02*
X2614400D01*
G01X2027500Y2540000D02*
X2159000D01*
G01D02*
X2290500D01*
G01X2159000Y2286000D02*
X3302000D01*
G01X1905000Y4053100D02*
Y4191000D01*
G01D02*
Y4328900D01*
G01Y4191000D02*
X2042900D01*
G01X4508500Y5207000D02*
Y5308200D01*
X4522000Y5321700D01*
Y5538000D01*
X4472000Y5588000D01*
X2095500D01*
X1905000Y5397500D01*
Y5207000D01*
G01X6604000Y2032000D02*
Y1905400D01*
X6667500Y1841900D01*
Y1256500D01*
X6617500Y1206500D01*
X3352000D01*
X3302000Y1256500D01*
Y1778000D01*
X3365500Y1841500D01*
X3556000D01*
X3683000Y1968500D01*
Y2286000D01*
X3746500Y2349500D01*
X4762500D01*
X4826000Y2413000D01*
Y2794000D01*
G01X3302000Y1900500D02*
Y2032000D01*
G01X3170500D02*
X3302000D01*
G01D02*
X3433500D01*
G01X3048000Y3424500D02*
Y3556000D01*
G01D02*
Y3687500D01*
G01X2916500Y3556000D02*
X3048000D01*
G01X3302000Y4318000D02*
Y4522000D01*
X3252000Y4572000D01*
X2984500D01*
X2921000Y4635500D01*
Y4953000D01*
G01X3556000Y4318000D02*
X3302000D01*
G01X2921000Y5207000D02*
Y5338500D01*
G01X2789500Y5207000D02*
X2921000D01*
G01D02*
X3052500D01*
G01X3492500Y1651000D02*
X3746500D01*
X3873500Y1778000D01*
G01D02*
X4522000D01*
X4572000Y1828000D01*
Y2032000D01*
G01X4826000Y2794000D02*
Y2934500D01*
X4712500Y3048000D01*
X3937000D01*
X3873500Y2984500D01*
Y2794000D01*
G01X3556000Y4318000D02*
X3682600Y4191400D01*
X4445400D01*
X4572000Y4318000D01*
G01X3810000D02*
Y4572000D01*
X3746500Y4635500D01*
X3619500D01*
X3556000Y4699000D01*
Y5080000D01*
G01X3810000Y4948500D02*
Y5080000D01*
G01D02*
Y5211500D01*
G01Y5080000D02*
X3941500D01*
G01X5842000Y2032000D02*
X5709000D01*
X5651500Y1974500D01*
Y1968500D01*
X5524500Y1841500D01*
X4889500D01*
X4826000Y1905000D01*
Y2032000D01*
G01X5207000Y3556000D02*
X4889500D01*
X4826000Y3619500D01*
Y4903000D01*
X4776000Y4953000D01*
X4508500D01*
G01X4572000Y4318000D02*
X4431900D01*
X4381900Y4368000D01*
Y5024700D01*
X4437200Y5080000D01*
X4508500D01*
G01X5588000Y4318000D02*
Y3860000D01*
X5638000Y3810000D01*
X6477000D01*
G01X5588000Y4318000D02*
Y4522000D01*
X5638000Y4572000D01*
X6046000D01*
X6096000Y4622000D01*
Y4953000D01*
G01X5842000Y2032000D02*
X5969000Y2159000D01*
Y3238500D01*
X6032500Y3302000D01*
X7175500D01*
X7239000Y3365500D01*
Y4141000D01*
X7289000Y4191000D01*
X7429500D01*
X7493000Y4254500D01*
Y4826000D01*
G01X6350000Y4821500D02*
Y4953000D01*
G01D02*
Y5084500D01*
G01X7493000Y5842000D02*
X6477000D01*
X6350000Y5715000D01*
G01X6858000Y1900500D02*
Y2032000D01*
G01D02*
Y2163500D01*
G01Y2794000D02*
X6985000Y2921000D01*
X7683500D01*
X7747000Y2984500D01*
Y3238500D01*
X7810500Y3302000D01*
X8840000D01*
X8890000Y3352000D01*
Y3937000D01*
G01X8255000Y3810000D02*
X8064500Y3619500D01*
X7683500D01*
X7493000Y3810000D01*
G01X8255000Y4318000D02*
X8001000D01*
X7937500Y4381500D01*
Y5778500D01*
X7874000Y5842000D01*
X7493000D01*
G01X8001000Y4064000D02*
X8255000Y3810000D01*
G01Y4826000D02*
X8744200D01*
X8769600Y4851400D01*
X8890000D01*
G01X8255000Y5704100D02*
Y5842000D01*
G01D02*
Y5979900D01*
G01X8117100Y5842000D02*
X8255000D01*
G01D02*
X8392900D01*
G01X9500000Y3254000D02*
Y3385500D01*
G01X9368500Y3254000D02*
X9500000D01*
G01Y3000000D02*
X9373400D01*
X9357900Y2984500D01*
X9295600D01*
X9245600Y3034500D01*
Y4801400D01*
X9195600Y4851400D01*
X8890000D01*
G54D11*
X500000Y2238000D03*
D03*
Y2492000D03*
D03*
Y2746000D03*
D03*
Y3000000D03*
D03*
Y3992000D03*
D03*
Y4246000D03*
D03*
Y4500000D03*
D03*
X1397000Y2032000D03*
D03*
Y2286000D03*
D03*
Y2540000D03*
D03*
X2159000Y2032000D03*
D03*
Y2286000D03*
D03*
Y2540000D03*
D03*
Y2794000D03*
D03*
X3302000Y2286000D03*
D03*
Y2032000D03*
D03*
Y3556000D03*
D03*
Y4318000D03*
D03*
X3048000D03*
D03*
X2921000Y4953000D03*
D03*
Y5207000D03*
D03*
X3810000Y3556000D03*
D03*
X3556000D03*
D03*
X3810000Y4318000D03*
D03*
X3556000D03*
D03*
Y5080000D03*
D03*
X3810000D03*
D03*
X4826000Y2032000D03*
D03*
X4572000D03*
D03*
X4826000Y2794000D03*
D03*
X4572000D03*
D03*
X4318000D03*
D03*
X5080000Y2032000D03*
D03*
Y2794000D03*
D03*
X5461000Y3302000D03*
D03*
X5715000Y3556000D03*
D03*
X5207000D03*
D03*
X6350000Y2794000D03*
D03*
Y4953000D03*
D03*
X6096000D03*
D03*
X6350000Y5715000D03*
D03*
X6096000D03*
D03*
X5842000D03*
D03*
X7112000Y2032000D03*
D03*
X6858000D03*
D03*
X6604000D03*
D03*
X7112000Y2794000D03*
D03*
X6858000D03*
D03*
X6604000D03*
D03*
Y4953000D03*
D03*
Y5715000D03*
D03*
X8001000Y4064000D03*
D03*
X8255000Y3810000D03*
D03*
Y4318000D03*
D03*
X9500000Y3254000D03*
D03*
Y3000000D03*
D03*
G54D12*
X1016000Y4191000D03*
D03*
Y5207000D03*
D03*
X1905000Y4191000D03*
D03*
Y5207000D03*
D03*
X2476500Y1651000D03*
D03*
X3492500D03*
D03*
X3873500Y1778000D03*
D03*
Y2794000D03*
D03*
X4572000Y4318000D03*
D03*
X5588000D03*
D03*
X5842000Y1016000D03*
D03*
Y2032000D03*
D03*
X6477000Y3810000D03*
D03*
X7493000D03*
D03*
Y4826000D03*
D03*
Y5842000D03*
D03*
X8255000Y4826000D03*
D03*
Y5842000D03*
D03*
G54D13*
X1397000Y2794000D03*
D03*
X3048000Y3556000D03*
D03*
X4318000Y2032000D03*
D03*
X6350000D03*
D03*
X5842000Y4953000D03*
D03*
G54D14*
X4508500D03*
D03*
G54D15*
Y5080000D03*
D03*
Y5207000D03*
D03*
G54D16*
X8890000Y3937000D03*
D03*
G54D17*
Y4851400D03*
D03*
G54D18*
G01X500000Y2492000D02*
X484500Y2476500D01*
X417500D01*
X317500Y2576500D01*
Y3809500D01*
X500000Y3992000D01*
G01X691100Y4833400D02*
X388300D01*
X317500Y4762600D01*
Y4174500D01*
X500000Y3992000D01*
G01X2159000Y2540000D02*
X1941500D01*
X1841500Y2440000D01*
Y1814500D01*
X1741500Y1714500D01*
X1016000D01*
X889000Y1841500D01*
Y2413000D01*
X810000Y2492000D01*
X500000D01*
G01Y2238000D02*
X1191000D01*
X1397000Y2032000D01*
G01X500000Y3000000D02*
X1191000D01*
X1397000Y2794000D01*
G01X1016000Y4191000D02*
Y2921000D01*
X841000Y2746000D01*
X500000D01*
G01X1016000Y4191000D02*
X1174000Y4033000D01*
X2763000D01*
X3048000Y4318000D01*
G01X698500Y4826000D02*
X691100Y4833400D01*
G01X5143500Y1624000D02*
Y1497000D01*
X5043500Y1397000D01*
X1497000D01*
X1397000Y1497000D01*
Y2032000D01*
G01Y2794000D02*
X1587500Y2984500D01*
X3175000D01*
X3302000Y2857500D01*
Y2703500D01*
X3402000Y2603500D01*
X4572000D01*
G01X5715000Y3556000D02*
X5778500Y3619500D01*
Y3900500D01*
X5678500Y4000500D01*
X3148000D01*
X3048000Y4100500D01*
Y4318000D01*
G01X6604000Y2794000D02*
Y2603500D01*
X6533200Y2532700D01*
X4642800D01*
X4572000Y2603500D01*
G01D02*
Y2794000D01*
G01X5143500Y1624000D02*
Y1968500D01*
X5080000Y2032000D01*
G01X7112000D02*
Y1624000D01*
X7012000Y1524000D01*
X5243500D01*
X5143500Y1624000D01*
G01X5461000Y3302000D02*
X5715000Y3556000D01*
G01X7112000Y2032000D02*
X7239000Y2159000D01*
X8472500D01*
X8572500Y2259000D01*
Y5969000D01*
X8255000Y6286500D01*
X5688000D01*
X5588000Y6186500D01*
Y5307000D01*
X5688000Y5207000D01*
X6504000D01*
X6604000Y5107000D01*
Y4953000D01*
G01Y2794000D02*
X6826200Y3016200D01*
Y5932500D01*
X6726200Y6032500D01*
X6196000D01*
X6096000Y5932500D01*
Y5715000D01*
G54D19*
G01X4697000Y4891500D02*
Y5268500D01*
G01X4262400Y4978100D02*
X4320000Y4891500D01*
G01D02*
X4406600Y4833900D01*
G01D02*
X4508500Y4813600D01*
G01D02*
X4610400Y4833900D01*
G01D02*
X4697000Y4891500D01*
G01D02*
X4699000Y4893600D01*
G01X4697000Y5268500D02*
X4610400Y5326100D01*
G01D02*
X4508500Y5346400D01*
G01D02*
X4406600Y5326100D01*
G01D02*
X4320000Y5268500D01*
G01D02*
X4262400Y5181900D01*
G01D02*
X4242100Y5080000D01*
G01D02*
X4262400Y4978100D01*
M02*
