G04 ================== begin FILE IDENTIFICATION RECORD ==================*
G04 Layout Name:  C:/USERS/USER/DESKTOP/WORK/PULSE/allegro/PULSE.brd*
G04 Film Name:    SilkT*
G04 File Format:  Gerber RS274X*
G04 File Origin:  Cadence Allegro 17.2-P019*
G04 Origin Date:  Tue Jul 30 17:38:02 2019*
G04 *
G04 Layer:  REF DES/SILKSCREEN_TOP*
G04 Layer:  PACKAGE GEOMETRY/SILKSCREEN_TOP*
G04 Layer:  BOARD GEOMETRY/SILKSCREEN_TOP*
G04 *
G04 Offset:    (0.000 0.000)*
G04 Mirror:    No*
G04 Mode:      Positive*
G04 Rotation:  0*
G04 FullContactRelief:  No*
G04 UndefLineWidth:     0.200*
G04 ================== end FILE IDENTIFICATION RECORD ====================*
%FSLAX25Y25*MOMM*%
%IR0*IPPOS*OFA0.00000B0.00000*MIA0B0*SFA1.00000B1.00000*%
%ADD10C,.203*%
%ADD11C,.2*%
G75*
%LPD*%
G75*
G54D10*
G01X4697000Y4891500D02*
Y5268500D01*
G01X4262400Y4978100D02*
X4320000Y4891500D01*
G01D02*
X4406600Y4833900D01*
G01D02*
X4508500Y4813600D01*
G01D02*
X4610400Y4833900D01*
G01D02*
X4697000Y4891500D01*
G01D02*
X4699000Y4893600D01*
G01X4697000Y5268500D02*
X4610400Y5326100D01*
G01D02*
X4508500Y5346400D01*
G01D02*
X4406600Y5326100D01*
G01D02*
X4320000Y5268500D01*
G01D02*
X4262400Y5181900D01*
G01D02*
X4242100Y5080000D01*
G01D02*
X4262400Y4978100D01*
G54D11*
G01X339600Y3215900D02*
X347600Y3203200D01*
X357300Y3194700D01*
X368500Y3190500D01*
X381400Y3194700D01*
X391100Y3203200D01*
X400700Y3215900D01*
X403900Y3232800D01*
Y3317500D01*
G01X501200Y3190500D02*
Y3317500D01*
X481900Y3292100D01*
G01Y3190500D02*
X520500D01*
G01X373000Y3127000D02*
X627000D01*
Y2111000D01*
X373000D01*
Y3127000D01*
G01Y4627000D02*
X627000D01*
Y3865000D01*
X373000D01*
Y4627000D01*
G01X889000Y4343400D02*
Y5054600D01*
X1143000D01*
Y4343400D01*
X889000D01*
G01X411100Y4787900D02*
X419100Y4775200D01*
X428800Y4766700D01*
X440000Y4762500D01*
X452900Y4766700D01*
X462600Y4775200D01*
X472200Y4787900D01*
X475400Y4804800D01*
Y4889500D01*
G01X542200Y4868300D02*
X551800Y4881000D01*
X563100Y4887400D01*
X576000Y4889500D01*
X592100Y4885300D01*
X603300Y4874700D01*
X606500Y4862000D01*
X604900Y4849300D01*
X598500Y4838700D01*
X566300Y4817500D01*
X551800Y4802700D01*
X542200Y4781500D01*
X539000Y4762500D01*
X606500D01*
G01X855600Y5143500D02*
Y5270500D01*
X895800D01*
X908700Y5264100D01*
X916700Y5255700D01*
X919900Y5238700D01*
X916700Y5221800D01*
X907100Y5211200D01*
X895800Y5204900D01*
X855600D01*
G01X895800D02*
X919900Y5143500D01*
G01X986700Y5249300D02*
X996300Y5262000D01*
X1007600Y5268400D01*
X1020500Y5270500D01*
X1036600Y5266300D01*
X1047800Y5255700D01*
X1051000Y5243000D01*
X1049400Y5230300D01*
X1043000Y5219700D01*
X1010800Y5198500D01*
X996300Y5183700D01*
X986700Y5162500D01*
X983500Y5143500D01*
X1051000D01*
G01X1498600Y2921000D02*
X1651000D01*
X1714500Y2857500D01*
X1841500D01*
X1905000Y2921000D01*
X2057400D01*
Y1905000D01*
X1498600D01*
Y2921000D01*
G01X1487400Y3111500D02*
Y3020500D01*
X1493800Y3001400D01*
X1506700Y2988700D01*
X1522700Y2984500D01*
X1538800Y2988700D01*
X1551700Y3001400D01*
X1558100Y3020500D01*
Y3111500D01*
G01X1616900Y3009900D02*
X1626500Y2995100D01*
X1639400Y2986600D01*
X1653900Y2984500D01*
X1666700Y2986600D01*
X1679600Y2997200D01*
X1687600Y3009900D01*
X1689200Y3022600D01*
X1686000Y3037400D01*
X1674800Y3048000D01*
X1663500Y3052200D01*
X1649000D01*
G01X1663500D02*
X1673200Y3058600D01*
X1681200Y3069200D01*
X1684400Y3081900D01*
X1681200Y3094600D01*
X1673200Y3105100D01*
X1658700Y3111500D01*
X1644200Y3109400D01*
X1629700Y3100900D01*
G01X2032000Y5054600D02*
Y4343400D01*
X1778000D01*
Y5054600D01*
X2032000D01*
G01X1744600Y5143500D02*
Y5270500D01*
X1784800D01*
X1797700Y5264100D01*
X1805700Y5255700D01*
X1808900Y5238700D01*
X1805700Y5221800D01*
X1796100Y5211200D01*
X1784800Y5204900D01*
X1744600D01*
G01X1784800D02*
X1808900Y5143500D01*
G01X1925600D02*
Y5270500D01*
X1866000Y5179500D01*
X1946500D01*
G01X2633600Y1841500D02*
Y1968500D01*
X2673800D01*
X2686700Y1962100D01*
X2694700Y1953700D01*
X2697900Y1936700D01*
X2694700Y1919800D01*
X2685100Y1909200D01*
X2673800Y1902900D01*
X2633600D01*
G01X2673800D02*
X2697900Y1841500D01*
G01X2795200D02*
X2806500Y1843600D01*
X2819400Y1850000D01*
X2827400Y1860500D01*
X2830600Y1875400D01*
X2827400Y1890200D01*
X2817800Y1902900D01*
X2803300Y1909200D01*
X2787200D01*
X2777600Y1913500D01*
X2769500Y1924000D01*
X2766300Y1938900D01*
X2771100Y1953700D01*
X2782400Y1964300D01*
X2795200Y1968500D01*
X2808100Y1964300D01*
X2819400Y1953700D01*
X2824200Y1938900D01*
X2821000Y1924000D01*
X2812900Y1913500D01*
X2803300Y1909200D01*
X2787200D01*
X2772700Y1902900D01*
X2763100Y1890200D01*
X2759900Y1875400D01*
X2763100Y1860500D01*
X2771100Y1850000D01*
X2784000Y1843600D01*
X2795200Y1841500D01*
G01X2628900Y1778000D02*
X3340100D01*
Y1524000D01*
X2628900D01*
Y1778000D01*
G01X3272600Y2592900D02*
X3263000Y2599300D01*
X3251700Y2603500D01*
X3238900D01*
X3224400Y2597100D01*
X3213100Y2586600D01*
X3205100Y2573900D01*
X3198600Y2552700D01*
X3197000Y2533600D01*
X3200300Y2514600D01*
X3205100Y2501900D01*
X3214700Y2489200D01*
X3226000Y2480700D01*
X3237200Y2476500D01*
X3248500D01*
X3259800Y2480700D01*
X3269400Y2487100D01*
X3277500Y2495500D01*
G01X3331400Y2501900D02*
X3341000Y2487100D01*
X3353900Y2478600D01*
X3368400Y2476500D01*
X3381200Y2478600D01*
X3394100Y2489200D01*
X3402100Y2501900D01*
X3403700Y2514600D01*
X3400500Y2529400D01*
X3389300Y2540000D01*
X3378000Y2544200D01*
X3363500D01*
G01X3378000D02*
X3387700Y2550600D01*
X3395700Y2561200D01*
X3398900Y2573900D01*
X3395700Y2586600D01*
X3387700Y2597100D01*
X3373200Y2603500D01*
X3358700Y2601400D01*
X3344200Y2592900D01*
G01X3556000Y2159000D02*
G03I-254000J0D01*
G01X2921000Y3657600D02*
Y3810000D01*
X2984500Y3873500D01*
Y4000500D01*
X2921000Y4064000D01*
Y4216400D01*
X3937000D01*
Y3657600D01*
X2921000D01*
G01X2947900Y4445000D02*
Y4354000D01*
X2954300Y4334900D01*
X2967200Y4322200D01*
X2983200Y4318000D01*
X2999300Y4322200D01*
X3012200Y4334900D01*
X3018600Y4354000D01*
Y4445000D01*
G01X3112700Y4318000D02*
Y4445000D01*
X3093400Y4419600D01*
G01Y4318000D02*
X3132000D01*
G01X3175000Y5080000D02*
G03I-254000J0D01*
G01X2828100Y5513900D02*
X2818500Y5520300D01*
X2807200Y5524500D01*
X2794400D01*
X2779900Y5518100D01*
X2768600Y5507600D01*
X2760600Y5494900D01*
X2754100Y5473700D01*
X2752500Y5454600D01*
X2755800Y5435600D01*
X2760600Y5422900D01*
X2770200Y5410200D01*
X2781500Y5401700D01*
X2792700Y5397500D01*
X2804000D01*
X2815300Y5401700D01*
X2824900Y5408100D01*
X2833000Y5416500D01*
G01X2922200Y5397500D02*
Y5524500D01*
X2902900Y5499100D01*
G01Y5397500D02*
X2941500D01*
G01X3271800Y6286500D02*
Y6686500D01*
X3351800D01*
X3378500Y6666500D01*
X3398500Y6619800D01*
X3405200Y6566500D01*
X3398500Y6513200D01*
X3381800Y6473200D01*
X3351800Y6453200D01*
X3271800D01*
G01X3515200Y6686500D02*
Y6399800D01*
X3528500Y6339800D01*
X3555200Y6299800D01*
X3588500Y6286500D01*
X3621800Y6299800D01*
X3648500Y6339800D01*
X3661800Y6399800D01*
Y6686500D01*
G01X3771800D02*
Y6286500D01*
X3905200D01*
G01X4018500Y6339800D02*
X4045200Y6306500D01*
X4075200Y6286500D01*
X4101800D01*
X4128500Y6306500D01*
X4148500Y6339800D01*
X4158500Y6386500D01*
X4151800Y6433200D01*
X4135200Y6473200D01*
X4105200Y6499800D01*
X4065200Y6513200D01*
X4041800Y6539800D01*
X4031800Y6586500D01*
X4038500Y6633200D01*
X4055200Y6666500D01*
X4078500Y6686500D01*
X4101800D01*
X4125200Y6673200D01*
X4145200Y6639800D01*
G01X4405200Y6286500D02*
X4271800D01*
Y6686500D01*
X4405200D01*
G01X4351800Y6493200D02*
X4271800D01*
G01X4751800Y6286500D02*
Y6686500D01*
X4838500Y6353200D01*
X4925200Y6686500D01*
Y6286500D01*
G01X5088500D02*
X5061800Y6293200D01*
X5038500Y6319800D01*
X5018500Y6359800D01*
X5005200Y6406500D01*
X4998500Y6459800D01*
Y6513200D01*
X5005200Y6566500D01*
X5018500Y6613200D01*
X5038500Y6653200D01*
X5061800Y6679800D01*
X5088500Y6686500D01*
X5115200Y6679800D01*
X5138500Y6653200D01*
X5158500Y6613200D01*
X5171800Y6566500D01*
X5178500Y6513200D01*
Y6459800D01*
X5171800Y6406500D01*
X5158500Y6359800D01*
X5138500Y6319800D01*
X5115200Y6293200D01*
X5088500Y6286500D01*
G01X5265200D02*
Y6686500D01*
X5331800D01*
X5358500Y6666500D01*
X5378500Y6639800D01*
X5395200Y6599800D01*
X5408500Y6553200D01*
X5411800Y6486500D01*
X5408500Y6419800D01*
X5395200Y6373200D01*
X5378500Y6333200D01*
X5358500Y6306500D01*
X5331800Y6286500D01*
X5265200D01*
G01X5515200Y6686500D02*
Y6399800D01*
X5528500Y6339800D01*
X5555200Y6299800D01*
X5588500Y6286500D01*
X5621800Y6299800D01*
X5648500Y6339800D01*
X5661800Y6399800D01*
Y6686500D01*
G01X5771800D02*
Y6286500D01*
X5905200D01*
G01X6005200D02*
X6088500Y6686500D01*
X6171800Y6286500D01*
G01X6141800Y6426500D02*
X6035200D01*
G01X6338500Y6686500D02*
Y6286500D01*
G01X6261800Y6686500D02*
X6415200D01*
G01X6548500D02*
X6628500D01*
G01X6588500D02*
Y6286500D01*
G01X6548500D02*
X6628500D01*
G01X6838500D02*
X6811800Y6293200D01*
X6788500Y6319800D01*
X6768500Y6359800D01*
X6755200Y6406500D01*
X6748500Y6459800D01*
Y6513200D01*
X6755200Y6566500D01*
X6768500Y6613200D01*
X6788500Y6653200D01*
X6811800Y6679800D01*
X6838500Y6686500D01*
X6865200Y6679800D01*
X6888500Y6653200D01*
X6908500Y6613200D01*
X6921800Y6566500D01*
X6928500Y6513200D01*
Y6459800D01*
X6921800Y6406500D01*
X6908500Y6359800D01*
X6888500Y6319800D01*
X6865200Y6293200D01*
X6838500Y6286500D01*
G01X7011800D02*
Y6686500D01*
X7165200Y6286500D01*
Y6686500D01*
G01X3659200Y317500D02*
X3525800D01*
Y717500D01*
X3659200D01*
G01X3605800Y524200D02*
X3525800D01*
G01X3842500Y317500D02*
Y717500D01*
G01X4042500Y497500D02*
X4149200D01*
X4139200Y544200D01*
X4122500Y570800D01*
X4099200Y584200D01*
X4075800Y577500D01*
X4055800Y557500D01*
X4042500Y510800D01*
X4035800Y470800D01*
Y430800D01*
X4042500Y390800D01*
X4059200Y350800D01*
X4079200Y324200D01*
X4102500Y317500D01*
X4125800Y330800D01*
X4149200Y370800D01*
G01X4395800Y550800D02*
X4372500Y577500D01*
X4352500Y584200D01*
X4325800Y570800D01*
X4305800Y544200D01*
X4292500Y497500D01*
X4289200Y450800D01*
X4292500Y404200D01*
X4305800Y364200D01*
X4325800Y330800D01*
X4352500Y317500D01*
X4375800Y330800D01*
X4395800Y357500D01*
G01X4592500Y717500D02*
Y317500D01*
G01X4545800Y584200D02*
X4639200D01*
G01X4795800Y317500D02*
Y584200D01*
G01Y530800D02*
X4812500Y557500D01*
X4829200Y577500D01*
X4852500Y584200D01*
X4869200Y577500D01*
X4889200Y557500D01*
G01X5092500Y317500D02*
X5072500Y324200D01*
X5052500Y350800D01*
X5039200Y397500D01*
X5032500Y450800D01*
X5039200Y504200D01*
X5052500Y550800D01*
X5072500Y577500D01*
X5092500Y584200D01*
X5112500Y577500D01*
X5132500Y550800D01*
X5145800Y504200D01*
X5149200Y450800D01*
X5145800Y397500D01*
X5132500Y350800D01*
X5112500Y324200D01*
X5092500Y317500D01*
G01X5285800D02*
Y584200D01*
G01Y517500D02*
X5299200Y550800D01*
X5319200Y577500D01*
X5345800Y584200D01*
X5369200Y577500D01*
X5389200Y550800D01*
X5399200Y504200D01*
Y317500D01*
G01X5592500Y584200D02*
Y317500D01*
G01Y690800D02*
X5585800Y697500D01*
Y710800D01*
X5592500Y717500D01*
X5599200Y710800D01*
Y697500D01*
X5592500Y690800D01*
G01X5895800Y550800D02*
X5872500Y577500D01*
X5852500Y584200D01*
X5825800Y570800D01*
X5805800Y544200D01*
X5792500Y497500D01*
X5789200Y450800D01*
X5792500Y404200D01*
X5805800Y364200D01*
X5825800Y330800D01*
X5852500Y317500D01*
X5875800Y330800D01*
X5895800Y357500D01*
G01X6415800Y684200D02*
X6395800Y704200D01*
X6372500Y717500D01*
X6345800D01*
X6315800Y697500D01*
X6292500Y664200D01*
X6275800Y624200D01*
X6262500Y557500D01*
X6259200Y497500D01*
X6265800Y437500D01*
X6275800Y397500D01*
X6295800Y357500D01*
X6319200Y330800D01*
X6342500Y317500D01*
X6365800D01*
X6389200Y330800D01*
X6409200Y350800D01*
X6425800Y377500D01*
G01X6509200Y317500D02*
X6592500Y717500D01*
X6675800Y317500D01*
G01X6645800Y457500D02*
X6539200D01*
G01X6769200Y317500D02*
Y717500D01*
X6835800D01*
X6862500Y697500D01*
X6882500Y670800D01*
X6899200Y630800D01*
X6912500Y584200D01*
X6915800Y517500D01*
X6912500Y450800D01*
X6899200Y404200D01*
X6882500Y364200D01*
X6862500Y337500D01*
X6835800Y317500D01*
X6769200D01*
G01X3746500Y1930400D02*
Y2641600D01*
X4000500D01*
Y1930400D01*
X3746500D01*
G01X3713100Y2730500D02*
Y2857500D01*
X3753300D01*
X3766200Y2851100D01*
X3774200Y2842700D01*
X3777400Y2825700D01*
X3774200Y2808800D01*
X3764600Y2798200D01*
X3753300Y2791900D01*
X3713100D01*
G01X3753300D02*
X3777400Y2730500D01*
G01X3844200Y2783400D02*
X3855400Y2798200D01*
X3865100Y2806700D01*
X3878000Y2810900D01*
X3889200Y2806700D01*
X3897300Y2798200D01*
X3903700Y2785500D01*
X3905300Y2770700D01*
X3903700Y2758000D01*
X3897300Y2745300D01*
X3887600Y2734700D01*
X3876400Y2730500D01*
X3863500Y2734700D01*
X3852200Y2747400D01*
X3845800Y2766500D01*
X3844200Y2787600D01*
X3847400Y2815200D01*
X3852200Y2830000D01*
X3860300Y2844800D01*
X3871500Y2855400D01*
X3882800Y2857500D01*
X3894100Y2853300D01*
X3902100Y2842700D01*
G01X3937000Y5080000D02*
G03I-254000J0D01*
G01X3526600Y5513900D02*
X3517000Y5520300D01*
X3505700Y5524500D01*
X3492900D01*
X3478400Y5518100D01*
X3467100Y5507600D01*
X3459100Y5494900D01*
X3452600Y5473700D01*
X3451000Y5454600D01*
X3454300Y5435600D01*
X3459100Y5422900D01*
X3468700Y5410200D01*
X3480000Y5401700D01*
X3491200Y5397500D01*
X3502500D01*
X3513800Y5401700D01*
X3523400Y5408100D01*
X3531500Y5416500D01*
G01X3590200Y5503300D02*
X3599800Y5516000D01*
X3611100Y5522400D01*
X3624000Y5524500D01*
X3640100Y5520300D01*
X3651300Y5509700D01*
X3654500Y5497000D01*
X3652900Y5484300D01*
X3646500Y5473700D01*
X3614300Y5452500D01*
X3599800Y5437700D01*
X3590200Y5416500D01*
X3587000Y5397500D01*
X3654500D01*
G01X4191000Y2133600D02*
Y2286000D01*
X4254500Y2349500D01*
Y2476500D01*
X4191000Y2540000D01*
Y2692400D01*
X5207000D01*
Y2133600D01*
X4191000D01*
G01X4217900Y2921000D02*
Y2830000D01*
X4224300Y2810900D01*
X4237200Y2798200D01*
X4253200Y2794000D01*
X4269300Y2798200D01*
X4282200Y2810900D01*
X4288600Y2830000D01*
Y2921000D01*
G01X4402100Y2794000D02*
Y2921000D01*
X4342500Y2830000D01*
X4423000D01*
G01X4729100Y4572000D02*
Y4699000D01*
X4769300D01*
X4782200Y4692600D01*
X4790200Y4684200D01*
X4793400Y4667200D01*
X4790200Y4650300D01*
X4780600Y4639700D01*
X4769300Y4633400D01*
X4729100D01*
G01X4769300D02*
X4793400Y4572000D01*
G01X4855400Y4597400D02*
X4865000Y4582600D01*
X4877900Y4574100D01*
X4892400Y4572000D01*
X4905200Y4574100D01*
X4918100Y4584700D01*
X4926100Y4597400D01*
X4927700Y4610100D01*
X4924500Y4624900D01*
X4913300Y4635500D01*
X4902000Y4639700D01*
X4887500D01*
G01X4902000D02*
X4911700Y4646100D01*
X4919700Y4656700D01*
X4922900Y4669400D01*
X4919700Y4682100D01*
X4911700Y4692600D01*
X4897200Y4699000D01*
X4882700Y4696900D01*
X4868200Y4688400D01*
G01X4724400Y4445000D02*
X5435600D01*
Y4191000D01*
X4724400D01*
Y4445000D01*
G01X4810700Y5080000D02*
X4797900Y5082100D01*
X4786600Y5090600D01*
X4777000Y5103300D01*
X4770500Y5118100D01*
X4767300Y5135000D01*
Y5152000D01*
X4770500Y5168900D01*
X4777000Y5183700D01*
X4786600Y5196400D01*
X4797900Y5204900D01*
X4810700Y5207000D01*
X4823600Y5204900D01*
X4834900Y5196400D01*
X4844500Y5183700D01*
X4851000Y5168900D01*
X4854200Y5152000D01*
Y5135000D01*
X4851000Y5118100D01*
X4844500Y5103300D01*
X4834900Y5090600D01*
X4823600Y5082100D01*
X4810700Y5080000D01*
G01X4823600Y5113900D02*
X4842900Y5080000D01*
G01X4940200D02*
Y5207000D01*
X4920900Y5181600D01*
G01Y5080000D02*
X4959500D01*
G01X5681600Y1968500D02*
Y2095500D01*
X5721800D01*
X5734700Y2089100D01*
X5742700Y2080700D01*
X5745900Y2063700D01*
X5742700Y2046800D01*
X5733100Y2036200D01*
X5721800Y2029900D01*
X5681600D01*
G01X5721800D02*
X5745900Y1968500D01*
G01X5840000D02*
X5843200Y1996000D01*
X5848100Y2019300D01*
X5854500Y2040500D01*
X5862600Y2063700D01*
X5875400Y2095500D01*
X5811100D01*
G01X5778500Y3175000D02*
X5143500D01*
Y3683000D01*
X5778500D01*
Y3175000D01*
G01X5100700Y3873500D02*
X5140900Y3746500D01*
X5181200Y3873500D01*
G01X5238300Y3746500D02*
Y3873500D01*
X5278500D01*
X5291400Y3867100D01*
X5299400Y3858700D01*
X5302600Y3841700D01*
X5299400Y3824800D01*
X5289800Y3814200D01*
X5278500Y3807900D01*
X5238300D01*
G01X5278500D02*
X5302600Y3746500D01*
G01X5399900D02*
Y3873500D01*
X5380600Y3848100D01*
G01Y3746500D02*
X5419200D01*
G01X5424400Y5588000D02*
Y5497000D01*
X5430800Y5477900D01*
X5443700Y5465200D01*
X5459700Y5461000D01*
X5475800Y5465200D01*
X5488700Y5477900D01*
X5495100Y5497000D01*
Y5588000D01*
G01X5558700Y5566800D02*
X5568300Y5579500D01*
X5579600Y5585900D01*
X5592500Y5588000D01*
X5608600Y5583800D01*
X5619800Y5573200D01*
X5623000Y5560500D01*
X5621400Y5547800D01*
X5615000Y5537200D01*
X5582800Y5516000D01*
X5568300Y5501200D01*
X5558700Y5480000D01*
X5555500Y5461000D01*
X5623000D01*
G01X5715000Y1168400D02*
Y1879600D01*
X5969000D01*
Y1168400D01*
X5715000D01*
G01X6223000Y2133600D02*
Y2286000D01*
X6286500Y2349500D01*
Y2476500D01*
X6223000Y2540000D01*
Y2692400D01*
X7239000D01*
Y2133600D01*
X6223000D01*
G01X6249900Y2921000D02*
Y2830000D01*
X6256300Y2810900D01*
X6269200Y2798200D01*
X6285200Y2794000D01*
X6301300Y2798200D01*
X6314200Y2810900D01*
X6320600Y2830000D01*
Y2921000D01*
G01X6379400Y2813000D02*
X6389000Y2802500D01*
X6400300Y2796100D01*
X6414700Y2794000D01*
X6429200Y2798200D01*
X6440500Y2806700D01*
X6448500Y2821500D01*
X6450100Y2838400D01*
X6446900Y2855400D01*
X6438900Y2866000D01*
X6427600Y2874400D01*
X6416400Y2876500D01*
X6405100Y2874400D01*
X6390600Y2866000D01*
X6395400Y2921000D01*
X6438900D01*
G01X5715000Y5054600D02*
Y5207000D01*
X5778500Y5270500D01*
Y5397500D01*
X5715000Y5461000D01*
Y5613400D01*
X6731000D01*
Y5054600D01*
X5715000D01*
G01X6634100Y4000500D02*
Y4127500D01*
X6674300D01*
X6687200Y4121100D01*
X6695200Y4112700D01*
X6698400Y4095700D01*
X6695200Y4078800D01*
X6685600Y4068200D01*
X6674300Y4061900D01*
X6634100D01*
G01X6674300D02*
X6698400Y4000500D01*
G01X6795700D02*
Y4127500D01*
X6776400Y4102100D01*
G01Y4000500D02*
X6815000D01*
G01X6629400Y3937000D02*
X7340600D01*
Y3683000D01*
X6629400D01*
Y3937000D01*
G01X7142100Y5524500D02*
Y5651500D01*
X7182300D01*
X7195200Y5645100D01*
X7203200Y5636700D01*
X7206400Y5619700D01*
X7203200Y5602800D01*
X7193600Y5592200D01*
X7182300Y5585900D01*
X7142100D01*
G01X7182300D02*
X7206400Y5524500D01*
G01X7268400Y5543500D02*
X7278000Y5533000D01*
X7289300Y5526600D01*
X7303700Y5524500D01*
X7318200Y5528700D01*
X7329500Y5537200D01*
X7337500Y5552000D01*
X7339100Y5568900D01*
X7335900Y5585900D01*
X7327900Y5596500D01*
X7316600Y5604900D01*
X7305400Y5607000D01*
X7294100Y5604900D01*
X7279600Y5596500D01*
X7284400Y5651500D01*
X7327900D01*
G01X7874000Y3746500D02*
Y4381500D01*
X8382000D01*
Y3746500D01*
X7874000D01*
G01X7813400Y4539000D02*
X7853600Y4412000D01*
X7893900Y4539000D01*
G01X7951000Y4412000D02*
Y4539000D01*
X7991200D01*
X8004100Y4532600D01*
X8012100Y4524200D01*
X8015300Y4507200D01*
X8012100Y4490300D01*
X8002500Y4479700D01*
X7991200Y4473400D01*
X7951000D01*
G01X7991200D02*
X8015300Y4412000D01*
G01X8082100Y4517800D02*
X8091700Y4530500D01*
X8103000Y4536900D01*
X8115900Y4539000D01*
X8132000Y4534800D01*
X8143200Y4524200D01*
X8146400Y4511500D01*
X8144800Y4498800D01*
X8138400Y4488200D01*
X8106200Y4467000D01*
X8091700Y4452200D01*
X8082100Y4431000D01*
X8078900Y4412000D01*
X8146400D01*
G01X7620000Y5689600D02*
Y4978400D01*
X7366000D01*
Y5689600D01*
X7620000D01*
G01X7904100Y5524500D02*
Y5651500D01*
X7944300D01*
X7957200Y5645100D01*
X7965200Y5636700D01*
X7968400Y5619700D01*
X7965200Y5602800D01*
X7955600Y5592200D01*
X7944300Y5585900D01*
X7904100D01*
G01X7944300D02*
X7968400Y5524500D01*
G01X8038400Y5539300D02*
X8049700Y5528700D01*
X8062500Y5524500D01*
X8075400Y5528700D01*
X8086700Y5541400D01*
X8094700Y5560500D01*
X8097900Y5579500D01*
Y5602800D01*
X8094700Y5621900D01*
X8086700Y5638800D01*
X8077000Y5647300D01*
X8065700Y5651500D01*
X8052900Y5647300D01*
X8043200Y5638800D01*
X8036800Y5626100D01*
X8033600Y5609200D01*
X8036800Y5594400D01*
X8044800Y5579500D01*
X8054500Y5571100D01*
X8065700Y5568900D01*
X8078600Y5573200D01*
X8088300Y5583800D01*
X8097900Y5602800D01*
G01X8128000Y4978400D02*
Y5689600D01*
X8382000D01*
Y4978400D01*
X8128000D01*
G01X9627000Y2873000D02*
X9373000D01*
Y3381000D01*
X9627000D01*
Y2873000D01*
G01X9364600Y3517900D02*
X9372600Y3505200D01*
X9382300Y3496700D01*
X9393500Y3492500D01*
X9406400Y3496700D01*
X9416100Y3505200D01*
X9425700Y3517900D01*
X9428900Y3534800D01*
Y3619500D01*
G01X9490900Y3517900D02*
X9500500Y3503100D01*
X9513400Y3494600D01*
X9527900Y3492500D01*
X9540700Y3494600D01*
X9553600Y3505200D01*
X9561600Y3517900D01*
X9563200Y3530600D01*
X9560000Y3545400D01*
X9548800Y3556000D01*
X9537500Y3560200D01*
X9523000D01*
G01X9537500D02*
X9547200Y3566600D01*
X9555200Y3577200D01*
X9558400Y3589900D01*
X9555200Y3602600D01*
X9547200Y3613100D01*
X9532700Y3619500D01*
X9518200Y3617400D01*
X9503700Y3608900D01*
G01X8775900Y4635500D02*
Y4762500D01*
X8808000D01*
X8820900Y4756100D01*
X8830600Y4747700D01*
X8838600Y4735000D01*
X8845000Y4720200D01*
X8846600Y4699000D01*
X8845000Y4677800D01*
X8838600Y4663000D01*
X8830600Y4650300D01*
X8820900Y4641800D01*
X8808000Y4635500D01*
X8775900D01*
G01X8940700D02*
Y4762500D01*
X8921400Y4737100D01*
G01Y4635500D02*
X8960000D01*
G01X8788400Y4191000D02*
Y4597400D01*
X8991600D01*
Y4191000D01*
X8788400D01*
G01Y4305300D02*
X8991600D01*
G01X8788400Y4292600D02*
X8991600D01*
M02*
